<?xml version="1.0" encoding="UTF-8"?>
<svg width="50px" height="50px" version="1.1" viewBox="0 0 202.59 202.59" xml:space="preserve" xmlns="http://www.w3.org/2000/svg">
<path d="m198.05 160.1-31.286-31.29c-6.231-6.206-16.552-6.016-23.001 0.433l-15.761 15.761c-0.995-0.551-2.026-1.124-3.11-1.732-9.953-5.515-23.577-13.074-37.914-27.421-14.377-14.376-21.946-28.022-27.476-37.982-0.587-1.056-1.145-2.072-1.696-3.038l10.579-10.565 5.2-5.207c6.46-6.46 6.639-16.778 0.419-23.001l-31.287-31.294c-6.216-6.216-16.541-6.027-23.001 0.433l-8.818 8.868 0.243 0.24c-2.956 3.772-5.429 8.124-7.265 12.816-1.696 4.466-2.752 8.729-3.235 12.998-4.13 34.25 11.52 65.55 53.994 108.03 58.711 58.707 106.03 54.273 108.07 54.055 4.449-0.53 8.707-1.593 13.038-3.275 4.652-1.818 9.001-4.284 12.769-7.233l0.193 0.168 8.933-8.747c6.446-6.459 6.632-16.777 0.415-23.015zm-7.365 16.059-3.937 3.93-1.568 1.507c-2.469 2.387-6.743 5.74-12.984 8.181-3.543 1.364-7.036 2.24-10.59 2.663-0.447 0.043-44.95 3.84-100.03-51.235-46.832-46.83-54.337-73.815-51.191-99.951 0.394-3.464 1.263-6.95 2.652-10.593 2.462-6.277 5.812-10.547 8.181-13.02l5.443-5.497c2.623-2.63 6.714-2.831 9.112-0.433l31.286 31.286c2.394 2.401 2.205 6.492-0.422 9.13l-21.129 21.108 1.95 3.282c1.084 1.829 2.23 3.879 3.454 6.106 5.812 10.482 13.764 24.83 29.121 40.173 15.317 15.325 29.644 23.27 40.094 29.067 2.258 1.249 4.32 2.398 6.17 3.5l3.289 1.95 21.115-21.122c2.634-2.623 6.739-2.817 9.137-0.426l31.272 31.279c2.391 2.397 2.201 6.488-0.426 9.115z" fill="#000000"/>
</svg>
