<?xml version="1.0" encoding="UTF-8"?>
<svg version="1.1" viewBox="0 0 2000 1247" xmlns="http://www.w3.org/2000/svg">
<g transform="translate(-1.2121 .50486)">
<svg width="2e3" height="1247" data-background-color="#ffffff" viewBox="0 0 396 247" xmlns="http://www.w3.org/2000/svg" xmlns:xlink="http://www.w3.org/1999/xlink">
<g transform="translate(.24 -.1)">
<svg width="395.52" height="247.2" viewBox="0 0 395.52 247.2">
<svg/>
<svg width="395.52" height="247.2" viewBox="0 0 395.52 247.2">
<g transform="translate(75.544 57.638)">
<svg width="244.43" height="131.92" viewBox="0 0 244.43135999999998 131.92440224299062">
<svg width="244.43" height="131.92" viewBox="0 0 244.43135999999998 131.92440224299062">
<svg width="244.43" height="131.92" viewBox="0 0 244.43135999999998 131.92440224299062">
<svg width="244.43" height="131.92" viewBox="0 0 244.43135999999998 131.92440224299062">
<svg width="244.43" height="131.92" viewBox="0 0 244.43135999999998 131.92440224299062">
<svg width="244.43" height="131.92" viewBox="0 0 244.43135999999998 131.92440224299062">
<g>
<svg width="244.43" height="131.92" data-palette-color="#46c9c5" viewBox="0.45000001788139343 -34.650001525878906 67.70000457763672 34.650001525878906">
<path class="undefined-text-0" d="m0.45-34.65h26.5l-0.8 6.3h-8.55v28.35h-8.2v-28.35h-8.95v-6.3zm61.6 0 2.6 34.65h-8.05l-0.6-13.55q-0.25-4.85-0.25-8.65 0-2.9 0.15-5.5l-5.35 24.05h-7.75l-5.7-24.05q0.3 4.35 0.3 8.2 0 2.9-0.15 6.05l-0.6 13.45h-8l2.6-34.65h10.35l5.2 23.5 4.85-23.5h10.4z" fill="#46c9c5" data-fill-palette-color="primary"/>
</svg>
</g>
</svg>
</svg>
</svg>
</svg>
</svg>
</svg>
</g>
<path d="m246.56 51.638v-45.75h-235.42v235.42h235.42v-45.75h-11.897v33.853h-211.63v-211.63h211.63v33.853z" fill="#46c9c5" stroke="transparent" data-fill-palette-color="primary"/>
</svg>
</svg>
<rect width="395.52" height="247.2" fill="none" visibility="hidden"/>
</g>
</svg>
</g>
</svg>
